# xmcd CD database file
#
# Track frame offsets:
#	150
#	12309
#	25763
#	37608
#	48054
#	59428
#	71451
#	82253
#	93106
#	106987
#	117632
#	131011
#	145028
#	158191
#	172264
#	184507
#	195870
#	205424
#	215443
#
# Disc length: 3009 seconds
#
# Revision: 2
# Processed by: cddbd v1.5.2PL0 Copyright (c) Steve Scherf et al.
# Submitted via: CDex 1.77
#
DISCID=010bbf13
DTITLE=Hank Thompson - Seven classic albums cd1
DYEAR=2014
DGENRE=Country
TTITLE0=The wild side of life
TTITLE1=Today
TTITLE2=Tomorrow night
TTITLE3=Whoa sailor
TTITLE4=The green light
TTITLE5=Love thief
TTITLE6=Humpty dumpty heart
TTITLE7=Waiting in the lobby of your heart
TTITLE8=Yesterday's girl
TTITLE9=When you're lovin', you're livin'
TTITLE10=John Henry
TTITLE11=I saw my mothers name
TTITLE12=The letter edged in black
TTITLE13=Mother the queen on my heart
TTITLE14=You don't have the nerve
TTITLE15=At the rainbow's end
TTITLE16=The green light
TTITLE17=Rub-a-dub-dub
TTITLE18=Simple Simon simple heart
EXTD=YEAR: 2014
EXTT0=
EXTT1=
EXTT2=
EXTT3=
EXTT4=
EXTT5=
EXTT6=
EXTT7=
EXTT8=
EXTT9=
EXTT10=
EXTT11=
EXTT12=
EXTT13=
EXTT14=
EXTT15=
EXTT16=
EXTT17=
EXTT18=
PLAYORDER=
